<?xml version="1.0" encoding="UTF-8" standalone="no"?>
<svg
   xmlns:dc="http://purl.org/dc/elements/1.1/"
   xmlns:cc="http://creativecommons.org/ns#"
   xmlns:rdf="http://www.w3.org/1999/02/22-rdf-syntax-ns#"
   xmlns:svg="http://www.w3.org/2000/svg"
   xmlns="http://www.w3.org/2000/svg"
   xmlns:sodipodi="http://sodipodi.sourceforge.net/DTD/sodipodi-0.dtd"
   xmlns:inkscape="http://www.inkscape.org/namespaces/inkscape"
   version="1.1"
   id="svg2"
   xml:space="preserve"
   width="1266.6667"
   height="1333.3333"
   viewBox="0 0 1266.6667 1333.3333"
   sodipodi:docname="favicon.eps"><metadata
     id="metadata8"><rdf:RDF><cc:Work
         rdf:about=""><dc:format>image/svg+xml</dc:format><dc:type
           rdf:resource="http://purl.org/dc/dcmitype/StillImage" /></cc:Work></rdf:RDF></metadata><defs
     id="defs6" /><sodipodi:namedview
     pagecolor="#ffffff"
     bordercolor="#666666"
     borderopacity="1"
     objecttolerance="10"
     gridtolerance="10"
     guidetolerance="10"
     inkscape:pageopacity="0"
     inkscape:pageshadow="2"
     inkscape:window-width="640"
     inkscape:window-height="480"
     id="namedview4" /><g
     id="g10"
     inkscape:groupmode="layer"
     inkscape:label="ink_ext_XXXXXX"
     transform="matrix(1.3333333,0,0,-1.3333333,0,1333.3333)"><g
       id="g12"
       transform="scale(0.1)"><path
         d="M 8239.17,8631.37 H 4063.64 c -282.12,0 -510.83,-228.72 -510.83,-510.83 V 5610.78 c 0,-282.13 228.71,-510.83 510.83,-510.83 H 6417.92 L 7728.33,3789.54 v 1310.41 h 510.84 c 282.11,0 510.83,228.7 510.83,510.83 v 2509.76 c 0,282.11 -228.72,510.83 -510.83,510.83"
         style="fill:#f05e60;fill-opacity:1;fill-rule:nonzero;stroke:none"
         id="path14" /><path
         d="M 5768.36,6210.46 H 3552.82 v -599.68 c 0,-282.13 228.69,-510.83 510.82,-510.83 h 2215.54 v 599.68 c 0,282.11 -228.7,510.83 -510.82,510.83"
         style="fill:#d6443f;fill-opacity:1;fill-rule:nonzero;stroke:none"
         id="path16" /><path
         d="m 1260.83,6210.46 h 4175.52 c 282.13,0 510.83,-228.72 510.83,-510.83 V 3189.86 c 0,-282.12 -228.7,-510.83 -510.83,-510.83 H 3082.08 L 1771.67,1368.63 v 1310.4 H 1260.83 C 978.715,2679.03 750,2907.74 750,3189.86 v 2509.77 c 0,282.11 228.715,510.83 510.83,510.83"
         style="fill:#f7d768;fill-opacity:1;fill-rule:nonzero;stroke:none"
         id="path18" /><path
         d="m 2461.36,4457.64 c 0,-188.46 -152.78,-341.24 -341.24,-341.24 -188.47,0 -341.24,152.78 -341.24,341.24 0,188.46 152.77,341.24 341.24,341.24 188.46,0 341.24,-152.78 341.24,-341.24"
         style="fill:#41576b;fill-opacity:1;fill-rule:nonzero;stroke:none"
         id="path20" /><path
         d="m 3689.84,4457.64 c 0,-188.46 -152.79,-341.24 -341.25,-341.24 -188.46,0 -341.24,152.78 -341.24,341.24 0,188.46 152.78,341.24 341.24,341.24 188.46,0 341.25,-152.78 341.25,-341.24"
         style="fill:#41576b;fill-opacity:1;fill-rule:nonzero;stroke:none"
         id="path22" /><path
         d="m 4918.31,4457.64 c 0,-188.46 -152.78,-341.24 -341.24,-341.24 -188.47,0 -341.25,152.78 -341.25,341.24 0,188.46 152.78,341.24 341.25,341.24 188.46,0 341.24,-152.78 341.24,-341.24"
         style="fill:#41576b;fill-opacity:1;fill-rule:nonzero;stroke:none"
         id="path24" /></g></g></svg>
